<svg width="20" height="20" viewBox="0 0 20 20" fill="none" style={{ marginRight: '8px' }}>
  <path d="M19.8055 10.2292C19.8055 9.55056 19.7499 8.86722 19.6305 8.19861H10.2V12.0486H15.6014C15.3773 13.2917 14.6571 14.3889 13.6025 15.0875V17.5861H16.8251C18.7175 15.8431 19.8055 13.2722 19.8055 10.2292Z" fill="#4285F4"/>
  <path d="M10.2 20C12.897 20 15.1714 19.1042 16.8293 17.5861L13.6067 15.0875C12.7119 15.6972 11.5573 16.0417 10.2042 16.0417C7.59474 16.0417 5.38272 14.2833 4.5965 11.9167H1.27393V14.4917C2.96105 17.8583 6.41895 20 10.2 20Z" fill="#34A853"/>
  <path d="M4.59232 11.9167C4.18232 10.6736 4.18232 9.33056 4.59232 8.0875V5.5125H1.27393C-0.138509 8.33611 -0.138509 11.6681 1.27393 14.4917L4.59232 11.9167Z" fill="#FBBC04"/>
  <path d="M10.2 3.95833C11.6282 3.93611 13.0071 4.47222 14.0407 5.45833L16.8918 2.60694C15.0785 0.904721 12.6832 -0.0298595 10.2 0.000139476C6.41895 0.000139476 2.96105 2.14167 1.27393 5.5125L4.5965 8.0875C5.37853 5.71667 7.59474 3.95833 10.2 3.95833Z" fill="#EA4335"/>
</svg>